<?xml version="1.0" encoding="UTF-8"?>
<!DOCTYPE svg PUBLIC "-//W3C//DTD SVG 1.1//EN" "http://www.w3.org/Graphics/SVG/1.1/DTD/svg11.dtd">
<svg xmlns="http://www.w3.org/2000/svg" version="1.1" width="512px" height="512px" style="shape-rendering:geometricPrecision; text-rendering:geometricPrecision; image-rendering:optimizeQuality; fill-rule:evenodd; clip-rule:evenodd" xmlns:xlink="http://www.w3.org/1999/xlink">
<g><path style="opacity:0.978" fill="#eeb9d2" d="M 511.5,120.5 C 511.5,127.5 511.5,134.5 511.5,141.5C 510.153,146.188 508.486,150.854 506.5,155.5C 497.23,155.822 487.897,155.822 478.5,155.5C 491.213,142.367 492.713,128.033 483,112.5C 475.39,103.884 466.89,96.3841 457.5,90C 446.775,85.9239 436.775,87.2572 427.5,94C 421.167,100.333 414.833,106.667 408.5,113C 423.035,127.368 437.369,141.868 451.5,156.5C 441.167,156.5 430.833,156.5 420.5,156.5C 411.187,147.521 401.854,138.521 392.5,129.5C 385.348,136.152 378.348,142.985 371.5,150C 373.041,151.371 374.375,152.871 375.5,154.5C 375.44,155.043 375.107,155.376 374.5,155.5C 361.372,154.851 348.372,154.184 335.5,153.5C 362.023,125.81 389.357,98.9764 417.5,73C 438.476,62.1743 458.809,63.1743 478.5,76C 486,83.5 493.5,91 501,98.5C 505.885,105.266 509.385,112.6 511.5,120.5 Z"/></g>
<g><path style="opacity:0.989" fill="#e9b3d5" d="M 279.5,161.5 C 186.494,159.757 93.4941,157.757 0.5,155.5C 1.39277,152.539 3.39277,150.706 6.5,150C 95.1667,149.333 183.833,149.333 272.5,150C 277.523,152.215 279.856,156.048 279.5,161.5 Z"/></g>
<g><path style="opacity:0.998" fill="#e5b0d6" d="M -0.5,155.5 C -0.166667,155.5 0.166667,155.5 0.5,155.5C 93.4941,157.757 186.494,159.757 279.5,161.5C 279.723,166.069 277.723,169.069 273.5,170.5C 182.231,168.016 90.8976,165.683 -0.5,163.5C -0.5,160.833 -0.5,158.167 -0.5,155.5 Z"/></g>
<g><path style="opacity:0.973" fill="#e7b1d6" d="M 335.5,153.5 C 348.372,154.184 361.372,154.851 374.5,155.5C 375.107,155.376 375.44,155.043 375.5,154.5C 381.833,160.167 387.833,166.167 393.5,172.5C 383.319,172.173 373.319,172.506 363.5,173.5C 360.853,171.189 358.186,168.856 355.5,166.5C 353.481,168.19 351.481,169.856 349.5,171.5C 338.986,171.828 328.653,171.494 318.5,170.5C 323.833,164.5 329.5,158.833 335.5,153.5 Z"/></g>
<g><path style="opacity:0.996" fill="#e3add8" d="M -0.5,163.5 C 90.8976,165.683 182.231,168.016 273.5,170.5C 184.334,171.666 95.0009,171.832 5.5,171C 2.97739,169.64 0.977392,167.807 -0.5,165.5C -0.5,164.833 -0.5,164.167 -0.5,163.5 Z"/></g>
<g><path style="opacity:0.989" fill="#e7b1d6" d="M 478.5,155.5 C 487.897,155.822 497.23,155.822 506.5,155.5C 502.641,163.03 497.307,169.363 490.5,174.5C 472.818,174.697 455.151,174.363 437.5,173.5C 431.5,168.167 425.833,162.5 420.5,156.5C 430.833,156.5 441.167,156.5 451.5,156.5C 455.813,160.478 460.146,164.478 464.5,168.5C 469.187,164.145 473.854,159.812 478.5,155.5 Z"/></g>
<g><path style="opacity:0.99" fill="#e1abd8" d="M 437.5,173.5 C 455.151,174.363 472.818,174.697 490.5,174.5C 484.434,180.561 478.767,186.894 473.5,193.5C 463.333,192.605 453,191.939 442.5,191.5C 444.294,189.203 446.294,187.037 448.5,185C 444.63,181.298 440.963,177.464 437.5,173.5 Z"/></g>
<g><path style="opacity:0.988" fill="#dfa9da" d="M 318.5,170.5 C 328.653,171.494 338.986,171.828 349.5,171.5C 339.5,182.167 329.167,192.5 318.5,202.5C 309.167,201.167 299.833,199.833 290.5,198.5C 299.5,188.833 308.833,179.5 318.5,170.5 Z"/></g>
<g><path style="opacity:0.955" fill="#e0aad9" d="M 393.5,172.5 C 400.167,178.5 406.5,184.833 412.5,191.5C 401.857,190.655 391.19,190.321 380.5,190.5C 374.5,185.167 368.833,179.5 363.5,173.5C 373.319,172.506 383.319,172.173 393.5,172.5 Z"/></g>
<g><path style="opacity:0.982" fill="#d79fde" d="M 290.5,198.5 C 299.833,199.833 309.167,201.167 318.5,202.5C 313.833,207.833 308.833,212.833 303.5,217.5C 293.867,216.135 284.2,215.135 274.5,214.5C 279.5,208.833 284.833,203.5 290.5,198.5 Z"/></g>
<g><path style="opacity:0.984" fill="#d8a1dc" d="M 380.5,190.5 C 391.19,190.321 401.857,190.655 412.5,191.5C 417.48,196.145 422.48,200.812 427.5,205.5C 432.52,200.812 437.52,196.145 442.5,191.5C 453,191.939 463.333,192.605 473.5,193.5C 464.559,201.104 455.892,209.104 447.5,217.5C 434.167,217.5 420.833,217.5 407.5,217.5C 398.167,208.833 389.167,199.833 380.5,190.5 Z"/></g>
<g><path style="opacity:0.983" fill="#d099e1" d="M 274.5,214.5 C 284.2,215.135 293.867,216.135 303.5,217.5C 298.167,223.5 292.5,229.167 286.5,234.5C 276.828,234.666 267.161,234.5 257.5,234C 256.944,233.617 256.611,233.117 256.5,232.5C 262.167,226.167 268.167,220.167 274.5,214.5 Z"/></g>
<g><path style="opacity:0.979" fill="#d199df" d="M 407.5,217.5 C 420.833,217.5 434.167,217.5 447.5,217.5C 444.871,220.631 442.038,223.631 439,226.5C 438.667,227.5 438.333,228.5 438,229.5C 434.38,232.054 430.88,234.721 427.5,237.5C 417.167,237.5 406.833,237.5 396.5,237.5C 401.297,232.202 406.297,227.035 411.5,222C 409.959,220.629 408.625,219.129 407.5,217.5 Z"/></g>
<g><path style="opacity:0.98" fill="#ca93e3" d="M 256.5,232.5 C 256.611,233.117 256.944,233.617 257.5,234C 267.161,234.5 276.828,234.666 286.5,234.5C 281.5,240.167 276.167,245.5 270.5,250.5C 262.314,250.639 254.148,250.306 246,249.5C 244.167,249.667 242.333,249.833 240.5,250C 239.529,251.481 238.196,252.315 236.5,252.5C 242.833,245.5 249.5,238.833 256.5,232.5 Z"/></g>
<g><path style="opacity:0.963" fill="#cb92e2" d="M 396.5,237.5 C 406.833,237.5 417.167,237.5 427.5,237.5C 422.167,243.5 416.5,249.167 410.5,254.5C 400.833,253.833 391.167,253.167 381.5,252.5C 386.167,247.167 391.167,242.167 396.5,237.5 Z"/></g>
<g><path style="opacity:0.999" fill="#c88fe3" d="M 175.5,248.5 C 175.5,249.5 175.5,250.5 175.5,251.5C 117.187,249.667 58.8536,248.334 0.5,247.5C 1.25429,244.909 2.92096,243.076 5.5,242C 60.5,241.333 115.5,241.333 170.5,242C 173.493,243.159 175.16,245.325 175.5,248.5 Z"/></g>
<g><path style="opacity:0.986" fill="#c58be5" d="M -0.5,247.5 C -0.166667,247.5 0.166667,247.5 0.5,247.5C 58.8536,248.334 117.187,249.667 175.5,251.5C 175.5,250.5 175.5,249.5 175.5,248.5C 177.865,254.957 175.865,259.791 169.5,263C 115.167,263.667 60.8333,263.667 6.5,263C 3.37935,262.033 1.04602,260.2 -0.5,257.5C -0.5,254.167 -0.5,250.833 -0.5,247.5 Z"/></g>
<g><path style="opacity:0.974" fill="#c68de5" d="M 270.5,250.5 C 265.5,256.167 260.167,261.5 254.5,266.5C 245.18,265.871 235.846,265.538 226.5,265.5C 229.099,260.572 232.432,256.239 236.5,252.5C 238.196,252.315 239.529,251.481 240.5,250C 242.333,249.833 244.167,249.667 246,249.5C 254.148,250.306 262.314,250.639 270.5,250.5 Z"/></g>
<g><path style="opacity:0.959" fill="#c58ce4" d="M 381.5,252.5 C 391.167,253.167 400.833,253.833 410.5,254.5C 405.833,259.833 400.833,264.833 395.5,269.5C 385.486,269.499 375.486,269.166 365.5,268.5C 370.5,262.833 375.833,257.5 381.5,252.5 Z"/></g>
<g><path style="opacity:0.975" fill="#be84e7" d="M 226.5,265.5 C 235.846,265.538 245.18,265.871 254.5,266.5C 247.811,272.882 243.478,280.548 241.5,289.5C 234.352,288.508 227.019,288.175 219.5,288.5C 220.444,280.386 222.777,272.719 226.5,265.5 Z"/></g>
<g><path style="opacity:0.961" fill="#be84e7" d="M 365.5,268.5 C 375.486,269.166 385.486,269.499 395.5,269.5C 388.5,277.167 381.167,284.5 373.5,291.5C 363.167,291.5 352.833,291.5 342.5,291.5C 349.833,283.5 357.5,275.833 365.5,268.5 Z"/></g>
<g><path style="opacity:0.97" fill="#b97fea" d="M 219.5,288.5 C 227.019,288.175 234.352,288.508 241.5,289.5C 240.992,293.197 240.326,296.864 239.5,300.5C 231.648,300.825 223.982,300.492 216.5,299.5C 216.742,295.521 217.742,291.854 219.5,288.5 Z"/></g>
<g><path style="opacity:0.951" fill="#b97ee9" d="M 342.5,291.5 C 352.833,291.5 363.167,291.5 373.5,291.5C 369.5,296.167 365.167,300.5 360.5,304.5C 350.932,303.81 341.265,303.143 331.5,302.5C 334.833,298.5 338.5,294.833 342.5,291.5 Z"/></g>
<g><path style="opacity:0.982" fill="#b478ec" d="M 216.5,299.5 C 223.982,300.492 231.648,300.825 239.5,300.5C 237.483,307.25 235.483,313.917 233.5,320.5C 226.035,319.899 218.702,319.232 211.5,318.5C 212.592,311.91 214.259,305.577 216.5,299.5 Z"/></g>
<g><path style="opacity:0.961" fill="#b478ec" d="M 331.5,302.5 C 341.265,303.143 350.932,303.81 360.5,304.5C 354.5,311.167 348.167,317.5 341.5,323.5C 331.994,322.663 322.328,321.996 312.5,321.5C 318.5,314.833 324.833,308.5 331.5,302.5 Z"/></g>
<g><path style="opacity:0.965" fill="#af73ee" d="M 211.5,318.5 C 218.702,319.232 226.035,319.899 233.5,320.5C 232.475,325.933 231.142,331.267 229.5,336.5C 221.868,335.642 214.201,335.309 206.5,335.5C 207.721,329.597 209.388,323.931 211.5,318.5 Z"/></g>
<g><path style="opacity:0.953" fill="#ae72ee" d="M 312.5,321.5 C 322.328,321.996 331.994,322.663 341.5,323.5C 336.5,329.167 331.167,334.5 325.5,339.5C 310.038,337.732 294.372,337.066 278.5,337.5C 284.671,335.536 291.004,333.703 297.5,332C 302.933,329.059 307.933,325.559 312.5,321.5 Z"/></g>
<g><path style="opacity:0.995" fill="#aa6df0" d="M -0.5,348.5 C -0.5,345.5 -0.5,342.5 -0.5,339.5C 1.39512,336.443 4.06178,334.277 7.5,333C 61.1667,332.333 114.833,332.333 168.5,333C 176.723,337.15 178.556,343.316 174,351.5C 172.2,353.317 170.034,354.484 167.5,355C 114.5,355.667 61.5,355.667 8.5,355C 4.47542,354.127 1.47542,351.961 -0.5,348.5 Z"/></g>
<g><path style="opacity:0.977" fill="#aa6df0" d="M 206.5,335.5 C 214.201,335.309 221.868,335.642 229.5,336.5C 228.343,340.793 227.343,345.127 226.5,349.5C 243.833,345.5 261.167,341.5 278.5,337.5C 294.372,337.066 310.038,337.732 325.5,339.5C 317.778,348.198 308.111,353.531 296.5,355.5C 264.987,355.134 233.654,354.134 202.5,352.5C 203.362,346.717 204.696,341.05 206.5,335.5 Z"/></g>
<g><path style="opacity:0.978" fill="#a668f2" d="M 202.5,352.5 C 233.654,354.134 264.987,355.134 296.5,355.5C 268.096,363.1 239.429,370.1 210.5,376.5C 203.36,376.363 199.36,372.697 198.5,365.5C 199.466,360.943 200.799,356.609 202.5,352.5 Z"/></g>
<g><path style="opacity:0.989" fill="#a163f5" d="M -0.5,440.5 C -0.5,437.167 -0.5,433.833 -0.5,430.5C 0.977392,428.193 2.97739,426.36 5.5,425C 108.167,424.333 210.833,424.333 313.5,425C 318.186,426.857 320.519,430.357 320.5,435.5C 320.519,440.643 318.186,444.143 313.5,446C 211.167,446.667 108.833,446.667 6.5,446C 3.37935,445.033 1.04602,443.2 -0.5,440.5 Z"/></g>
</svg>
